<svg width="20" height="16" viewBox="0 0 20 16" fill="none" xmlns="http://www.w3.org/2000/svg">
<path d="M19.8002 2.48507C19.8002 2.48507 19.9924 2.35274 19.9924 2.6681C19.9924 5.63843 20 14.5493 20 14.5493C20 15.3472 19.3746 16 18.6103 16H1.38972C0.625436 16 0 15.3472 0 14.5493V2.62868C0 2.62868 0.0268881 2.45259 0.181268 2.56561L9.975 9.06869L19.8002 2.48507Z" fill="#EF6C00"/>
<path d="M19.6947 0.514152C19.7586 0.59245 19.8102 0.798653 19.5937 0.984483L9.97519 7.3464L0.368666 1.02469C0.126968 0.84386 0.201774 0.674666 0.251443 0.602757C0.502627 0.239415 0.922517 0 1.39588 0H18.6169C19.0506 0 19.4394 0.200959 19.6947 0.514152Z" fill="#EF6C00"/>
</svg>
