<svg width="35" height="30" viewBox="0 0 35 30" fill="none" xmlns="http://www.w3.org/2000/svg">
<path d="M28.4375 0H24.0625V3.75H28.4375V0ZM32.8125 0H30.625V5.625H21.875V0H13.125V5.625H4.375V0H2.18604C0.978541 0 0 0.83875 0 1.87375V28.1262C0 29.1612 0.978541 30 2.18604 30H32.814C34.0215 30 35 29.1612 35 28.1262V1.87375C35 0.83875 34.02 0 32.8125 0ZM30.625 26.25H4.375V9.375H30.625V26.25ZM10.9375 0H6.5625V3.75H10.9375V0ZM19.6875 13.125H15.3125V16.875H19.6875V13.125ZM26.25 13.125H21.875V16.875H26.25V13.125ZM13.125 18.75H8.75V22.5H13.125V18.75ZM13.125 13.125H8.75V16.875H13.125V13.125ZM19.6875 18.75H15.3125V22.5H19.6875V18.75ZM26.25 18.75H21.875V22.5H26.25V18.75Z" fill="#EF6C00"/>
</svg>
