<svg width="16" height="19" viewBox="0 0 16 19" fill="none" xmlns="http://www.w3.org/2000/svg">
<path d="M10.1916 13.1897V15.4269C10.1916 15.9005 10.0513 16.1373 9.77058 16.1373C9.60504 16.1373 9.4431 16.0595 9.28475 15.904V12.7126C9.4431 12.5571 9.60504 12.4794 9.77058 12.4794C10.0513 12.4794 10.1916 12.7161 10.1916 13.1897ZM13.8408 13.2003V13.6881H12.8691V13.2003C12.8691 12.7197 13.031 12.4794 13.3549 12.4794C13.6788 12.4794 13.8408 12.7197 13.8408 13.2003ZM3.41161 10.889H4.5668V9.8923H1.19838V10.889H2.33198V16.9219H3.41161V10.889ZM6.52092 16.9219H7.48178V11.6842H6.52092V15.692C6.30499 15.9888 6.09987 16.1373 5.90553 16.1373C5.77598 16.1373 5.70041 16.0631 5.67881 15.9146C5.67162 15.8934 5.66802 15.7697 5.66802 15.5435V11.6842H4.70715V15.8298C4.70715 16.1762 4.73594 16.4342 4.79352 16.6038C4.87989 16.8653 5.08862 16.9961 5.4197 16.9961C5.76518 16.9961 6.13225 16.7805 6.52092 16.3493V16.9219ZM11.1525 15.3527V13.264C11.1525 12.748 11.1201 12.3981 11.0553 12.2143C10.933 11.8185 10.6775 11.6205 10.2888 11.6205C9.92893 11.6205 9.59424 11.8114 9.28475 12.1931V9.8923H8.32389V16.9219H9.28475V16.4129C9.60864 16.8017 9.94332 16.9961 10.2888 16.9961C10.6775 16.9961 10.933 16.8017 11.0553 16.4129C11.1201 16.2221 11.1525 15.8687 11.1525 15.3527ZM14.8016 15.2467V15.1088H13.8192C13.8192 15.4693 13.812 15.6849 13.7976 15.7556C13.7472 16.01 13.6032 16.1373 13.3657 16.1373C13.0346 16.1373 12.8691 15.8934 12.8691 15.4057V14.4833H14.8016V13.3912C14.8016 12.8328 14.7045 12.4228 14.5101 12.1613C14.2294 11.8008 13.848 11.6205 13.3657 11.6205C12.8763 11.6205 12.4912 11.8008 12.2105 12.1613C12.009 12.4228 11.9082 12.8328 11.9082 13.3912V15.2254C11.9082 15.7839 12.0126 16.1938 12.2213 16.4554C12.502 16.8158 12.8907 16.9961 13.3873 16.9961C13.9055 16.9961 14.2942 16.8088 14.5533 16.4342C14.6829 16.2433 14.7584 16.0525 14.78 15.8616C14.7944 15.798 14.8016 15.593 14.8016 15.2467ZM8.23752 5.56641V3.33984C8.23752 2.85212 8.08277 2.60826 7.77328 2.60826C7.46379 2.60826 7.30904 2.85212 7.30904 3.33984V5.56641C7.30904 6.0612 7.46379 6.30859 7.77328 6.30859C8.08277 6.30859 8.23752 6.0612 8.23752 5.56641ZM16 13.529C16 15.183 15.9064 16.42 15.7193 17.24C15.6185 17.657 15.4098 18.0069 15.0931 18.2896C14.7764 18.5724 14.4094 18.7349 13.9919 18.7773C12.6676 18.9258 10.6703 19 8 19C5.32973 19 3.33243 18.9258 2.0081 18.7773C1.59064 18.7349 1.22177 18.5724 0.901485 18.2896C0.581197 18.0069 0.374269 17.657 0.280702 17.24C0.0935672 16.4483 0 15.2113 0 13.529C0 11.875 0.0935672 10.638 0.280702 9.81808C0.381467 9.40104 0.590193 9.05115 0.906883 8.76841C1.22357 8.48568 1.59424 8.31957 2.01889 8.27009C3.33603 8.12872 5.32973 8.05804 8 8.05804C10.6703 8.05804 12.6676 8.12872 13.9919 8.27009C14.4094 8.31957 14.7782 8.48568 15.0985 8.76841C15.4188 9.05115 15.6257 9.40104 15.7193 9.81808C15.9064 10.6097 16 11.8467 16 13.529ZM5.22537 0H6.32659L5.02024 4.23047V7.10379H3.94062V4.23047C3.83986 3.7074 3.62033 2.95815 3.28205 1.9827C3.01574 1.25465 2.78183 0.59375 2.5803 0H3.7247L4.49123 2.7885L5.22537 0ZM9.21997 3.53069V5.38616C9.21997 5.95871 9.11921 6.37574 8.91768 6.63728C8.64417 6.99777 8.26271 7.17801 7.77328 7.17801C7.29105 7.17801 6.91318 6.99777 6.63968 6.63728C6.43815 6.36868 6.33738 5.95164 6.33738 5.38616V3.53069C6.33738 2.96522 6.43815 2.55171 6.63968 2.29018C6.91318 1.92969 7.29105 1.74944 7.77328 1.74944C8.26271 1.74944 8.64417 1.92969 8.91768 2.29018C9.11921 2.55171 9.21997 2.96522 9.21997 3.53069ZM12.8367 1.81306V7.10379H11.8543V6.52065C11.4728 6.95889 11.1021 7.17801 10.7422 7.17801C10.4112 7.17801 10.1988 7.04725 10.1053 6.78571C10.0477 6.61607 10.0189 6.351 10.0189 5.99051V1.81306H11.0014V5.70424C11.0014 5.9375 11.0049 6.0612 11.0121 6.07534C11.0337 6.23084 11.1093 6.30859 11.2389 6.30859C11.4332 6.30859 11.6383 6.15662 11.8543 5.85268V1.81306H12.8367Z" fill="#EF6C00"/>
</svg>
